<?xml version="1.0" encoding="UTF-8"?>
<svg xmlns="http://www.w3.org/2000/svg" viewBox="0 0 900 620" font-family="Inter, system-ui, sans-serif">
  <defs>
    <linearGradient id="bg" x1="0" y1="0" x2="0" y2="1">
      <stop offset="0%" stop-color="#0a0e17"/>
      <stop offset="100%" stop-color="#0f1a2e"/>
    </linearGradient>
    <linearGradient id="accent-grad" x1="0" y1="0" x2="1" y2="0">
      <stop offset="0%" stop-color="#38bdf8"/>
      <stop offset="100%" stop-color="#06b6d4"/>
    </linearGradient>
  </defs>
  
  <!-- Background -->
  <rect width="900" height="620" fill="url(#bg)" rx="12"/>
  
  <!-- Title -->
  <text x="450" y="40" text-anchor="middle" fill="#38bdf8" font-size="13" font-weight="600" letter-spacing="2">PLATFORM ARCHITECTURE</text>
  <text x="450" y="62" text-anchor="middle" fill="#fff" font-size="20" font-weight="800">Архитектура Security Intelligence Platform</text>
  
  <!-- Layer 1: Scanning Plugins -->
  <rect x="40" y="85" width="820" height="100" rx="8" fill="#111827" stroke="#1e293b"/>
  <text x="60" y="108" fill="#38bdf8" font-size="11" font-weight="600" letter-spacing="1.5">SCANNING PLUGINS</text>
  
  <rect x="60" y="120" width="170" height="48" rx="6" fill="#0f172a" stroke="#38bdf8" stroke-opacity="0.3"/>
  <text x="145" y="148" text-anchor="middle" fill="#38bdf8" font-size="13" font-weight="600">Discovery Engine</text>
  
  <rect x="250" y="120" width="170" height="48" rx="6" fill="#0f172a" stroke="#38bdf8" stroke-opacity="0.3"/>
  <text x="335" y="148" text-anchor="middle" fill="#38bdf8" font-size="13" font-weight="600">Browser Intel</text>
  
  <rect x="440" y="120" width="170" height="48" rx="6" fill="#0f172a" stroke="#38bdf8" stroke-opacity="0.3"/>
  <text x="525" y="148" text-anchor="middle" fill="#38bdf8" font-size="13" font-weight="600">HTTP Intel</text>
  
  <rect x="630" y="120" width="170" height="48" rx="6" fill="#0f172a" stroke="#38bdf8" stroke-opacity="0.3"/>
  <text x="715" y="148" text-anchor="middle" fill="#38bdf8" font-size="13" font-weight="600">Nuclei Plugin</text>
  
  <!-- Arrow down -->
  <line x1="450" y1="185" x2="450" y2="215" stroke="#64748b" stroke-width="2" marker-end="url(#arrowhead)"/>
  <defs><marker id="arrowhead" markerWidth="8" markerHeight="6" refX="8" refY="3" orient="auto"><polygon points="0 0, 8 3, 0 6" fill="#64748b"/></marker></defs>
  
  <!-- Layer 2: Core Domain -->
  <rect x="40" y="215" width="820" height="100" rx="8" fill="#111827" stroke="#1e293b"/>
  <text x="60" y="238" fill="#34d399" font-size="11" font-weight="600" letter-spacing="1.5">CORE DOMAIN</text>
  
  <rect x="60" y="250" width="240" height="48" rx="6" fill="#0f172a" stroke="#34d399" stroke-opacity="0.3"/>
  <text x="180" y="278" text-anchor="middle" fill="#34d399" font-size="13" font-weight="600">Attack Surface Model</text>
  
  <rect x="320" y="250" width="240" height="48" rx="6" fill="#0f172a" stroke="#34d399" stroke-opacity="0.3"/>
  <text x="440" y="278" text-anchor="middle" fill="#34d399" font-size="13" font-weight="600">Artifact Bus</text>
  
  <rect x="580" y="250" width="240" height="48" rx="6" fill="#0f172a" stroke="#34d399" stroke-opacity="0.3"/>
  <text x="700" y="278" text-anchor="middle" fill="#34d399" font-size="13" font-weight="600">Pipeline Orchestrator</text>
  
  <!-- Arrow down -->
  <line x1="450" y1="315" x2="450" y2="345" stroke="#64748b" stroke-width="2" marker-end="url(#arrowhead)"/>
  
  <!-- Layer 3: Knowledge Graph -->
  <rect x="40" y="345" width="820" height="100" rx="8" fill="#111827" stroke="#1e293b"/>
  <text x="60" y="368" fill="#fbbf24" font-size="11" font-weight="600" letter-spacing="1.5">KNOWLEDGE LAYER</text>
  
  <rect x="140" y="380" width="620" height="48" rx="6" fill="#0f172a" stroke="#fbbf24" stroke-opacity="0.3"/>
  <text x="450" y="408" text-anchor="middle" fill="#fbbf24" font-size="15" font-weight="700">Security Knowledge Graph (KG-001)</text>
  
  <!-- Arrow down -->
  <line x1="450" y1="445" x2="450" y2="475" stroke="#64748b" stroke-width="2" marker-end="url(#arrowhead)"/>
  
  <!-- Layer 4: Intelligence Engine -->
  <rect x="40" y="475" width="820" height="100" rx="8" fill="#111827" stroke="#38bdf8" stroke-width="2"/>
  <text x="60" y="498" fill="#38bdf8" font-size="11" font-weight="600" letter-spacing="1.5">INTELLIGENCE LAYER — EPIC-04 (CURRENT)</text>
  
  <rect x="60" y="510" width="115" height="48" rx="6" fill="rgba(56,189,248,0.08)" stroke="#38bdf8" stroke-opacity="0.3"/>
  <text x="117" y="532" text-anchor="middle" fill="#38bdf8" font-size="10" font-weight="600">Rule Engine</text>
  
  <rect x="185" y="510" width="115" height="48" rx="6" fill="rgba(56,189,248,0.08)" stroke="#38bdf8" stroke-opacity="0.3"/>
  <text x="242" y="532" text-anchor="middle" fill="#38bdf8" font-size="10" font-weight="600">Correlation</text>
  
  <rect x="310" y="510" width="115" height="48" rx="6" fill="rgba(56,189,248,0.08)" stroke="#38bdf8" stroke-opacity="0.3"/>
  <text x="367" y="532" text-anchor="middle" fill="#38bdf8" font-size="10" font-weight="600">Attack Path</text>
  
  <rect x="435" y="510" width="115" height="48" rx="6" fill="rgba(56,189,248,0.08)" stroke="#38bdf8" stroke-opacity="0.3"/>
  <text x="492" y="532" text-anchor="middle" fill="#38bdf8" font-size="10" font-weight="600">Risk Aggr.</text>
  
  <rect x="560" y="510" width="115" height="48" rx="6" fill="rgba(56,189,248,0.08)" stroke="#38bdf8" stroke-opacity="0.3"/>
  <text x="617" y="532" text-anchor="middle" fill="#38bdf8" font-size="10" font-weight="600">Confidence</text>
  
  <rect x="685" y="510" width="115" height="48" rx="6" fill="rgba(56,189,248,0.08)" stroke="#38bdf8" stroke-opacity="0.3"/>
  <text x="742" y="532" text-anchor="middle" fill="#38bdf8" font-size="10" font-weight="600">Recommend.</text>
  
  <!-- Future arrow -->
  <text x="450" y="608" text-anchor="middle" fill="#64748b" font-size="12">Explainability → Dashboard → Continuous Security</text>
</svg>
